STARTFONT 2.3
FONT -FontForge-Tangerine-Book-R-Normal--12-120-72-72-P-45-ISO10646-1
SIZE 12 72 72  4
FONTBOUNDINGBOX 20 14 -4 -4
COMMENT "Generated by fontforge, http://fontforge.sourceforge.net"
COMMENT "Copyright (c) 2010 by Toshi Omagari. All rights reserved."
STARTPROPERTIES 40
FOUNDRY "FontForge"
FAMILY_NAME "Tangerine"
WEIGHT_NAME "Book"
SLANT "R"
SETWIDTH_NAME "Normal"
ADD_STYLE_NAME ""
PIXEL_SIZE 12
POINT_SIZE 120
RESOLUTION_X 72
RESOLUTION_Y 72
SPACING "P"
AVERAGE_WIDTH 45
CHARSET_REGISTRY "ISO10646"
CHARSET_ENCODING "1"
FONTNAME_REGISTRY ""
CHARSET_COLLECTIONS "ISO10646-1"
BITS_PER_PIXEL 4
FONT_NAME "Tangerine-Regular"
FACE_NAME "Tangerine Regular"
COPYRIGHT "Copyright (c) 2010 by Toshi Omagari. All rights reserved."
FONT_VERSION "1.3"
FONT_ASCENT 9
FONT_DESCENT 3
UNDERLINE_POSITION -1
UNDERLINE_THICKNESS 1
X_HEIGHT 2
CAP_HEIGHT 7
RAW_ASCENT 750
RAW_DESCENT 250
NORM_SPACE 2
RELATIVE_WEIGHT 40
RELATIVE_SETWIDTH 50
SUPERSCRIPT_X 0
SUPERSCRIPT_Y 5
SUPERSCRIPT_SIZE 7
SUBSCRIPT_X 0
SUBSCRIPT_Y 1
SUBSCRIPT_SIZE 7
AVG_LOWERCASE_WIDTH 29
AVG_UPPERCASE_WIDTH 86
ENDPROPERTIES
CHARS 233
STARTCHAR space
ENCODING 32
SWIDTH 150 0
DWIDTH 2 0
BBX 1 1 0 0
BITMAP
00
ENDCHAR
STARTCHAR exclam
ENCODING 33
SWIDTH 189 0
DWIDTH 2 0
BBX 4 7 0 0
BITMAP
0006
0043
0050
0130
0300
0000
3300
ENDCHAR
STARTCHAR quotedbl
ENCODING 34
SWIDTH 214 0
DWIDTH 3 0
BBX 3 2 0 3
BITMAP
0650
2220
ENDCHAR
STARTCHAR numbersign
ENCODING 35
SWIDTH 289 0
DWIDTH 3 0
BBX 4 4 0 0
BITMAP
0432
1DF9
6F50
4100
ENDCHAR
STARTCHAR dollar
ENCODING 36
SWIDTH 269 0
DWIDTH 3 0
BBX 4 6 0 -1
BITMAP
0020
0491
0920
1260
6740
2000
ENDCHAR
STARTCHAR percent
ENCODING 37
SWIDTH 388 0
DWIDTH 5 0
BBX 5 6 0 -1
BITMAP
000120
4A1400
623310
225350
045510
300000
ENDCHAR
STARTCHAR ampersand
ENCODING 38
SWIDTH 507 0
DWIDTH 6 0
BBX 6 6 0 0
BITMAP
00B700
024400
031000
346045
706300
664863
ENDCHAR
STARTCHAR quotesingle
ENCODING 39
SWIDTH 120 0
DWIDTH 1 0
BBX 2 2 0 3
BITMAP
06
21
ENDCHAR
STARTCHAR parenleft
ENCODING 40
SWIDTH 250 0
DWIDTH 3 0
BBX 3 10 1 -2
BITMAP
0030
0320
0600
4300
7000
7000
6000
5000
4000
1000
ENDCHAR
STARTCHAR parenright
ENCODING 41
SWIDTH 276 0
DWIDTH 3 0
BBX 4 10 0 -2
BITMAP
0020
0041
0032
0052
0070
0070
0160
0510
2300
1000
ENDCHAR
STARTCHAR asterisk
ENCODING 42
SWIDTH 188 0
DWIDTH 2 0
BBX 2 3 0 2
BITMAP
15
26
11
ENDCHAR
STARTCHAR plus
ENCODING 43
SWIDTH 301 0
DWIDTH 4 0
BBX 4 5 0 -1
BITMAP
0010
0140
4FF3
0400
0100
ENDCHAR
STARTCHAR comma
ENCODING 44
SWIDTH 112 0
DWIDTH 1 0
BBX 1 2 0 -1
BITMAP
60
30
ENDCHAR
STARTCHAR hyphen
ENCODING 45
SWIDTH 245 0
DWIDTH 3 0
BBX 1 1 2 2
BITMAP
00
ENDCHAR
STARTCHAR period
ENCODING 46
SWIDTH 112 0
DWIDTH 1 0
BBX 1 1 0 0
BITMAP
60
ENDCHAR
STARTCHAR slash
ENCODING 47
SWIDTH 210 0
DWIDTH 3 0
BBX 6 9 -1 -1
BITMAP
000002
000031
000130
000400
002200
004000
021000
040000
110000
ENDCHAR
STARTCHAR zero
ENCODING 48
SWIDTH 349 0
DWIDTH 4 0
BBX 4 4 0 0
BITMAP
049A
1407
4204
2841
ENDCHAR
STARTCHAR one
ENCODING 49
SWIDTH 189 0
DWIDTH 2 0
BBX 3 4 0 0
BITMAP
2E80
0610
0600
5200
ENDCHAR
STARTCHAR two
ENCODING 50
SWIDTH 277 0
DWIDTH 3 0
BBX 4 4 0 0
BITMAP
0492
0151
0230
5850
ENDCHAR
STARTCHAR three
ENCODING 51
SWIDTH 253 0
DWIDTH 3 0
BBX 4 6 -1 -2
BITMAP
0028
004A
0112
0008
3167
6E80
ENDCHAR
STARTCHAR four
ENCODING 52
SWIDTH 363 0
DWIDTH 4 0
BBX 6 6 0 0
BITMAP
000062
001450
012600
151620
37EE20
007000
ENDCHAR
STARTCHAR five
ENCODING 53
SWIDTH 250 0
DWIDTH 3 0
BBX 5 7 -1 -2
BITMAP
000010
005830
003000
01D200
003700
205300
8D6000
ENDCHAR
STARTCHAR six
ENCODING 54
SWIDTH 296 0
DWIDTH 4 0
BBX 6 6 0 0
BITMAP
002BD1
029221
081000
242500
512400
384000
ENDCHAR
STARTCHAR seven
ENCODING 55
SWIDTH 326 0
DWIDTH 4 0
BBX 5 6 0 -2
BITMAP
0AFD30
130100
001000
022000
240000
700000
ENDCHAR
STARTCHAR eight
ENCODING 56
SWIDTH 305 0
DWIDTH 4 0
BBX 5 6 0 0
BITMAP
004710
024430
00A400
143700
700600
474100
ENDCHAR
STARTCHAR nine
ENCODING 57
SWIDTH 304 0
DWIDTH 4 0
BBX 5 6 -1 -2
BITMAP
001450
021080
063760
03EC10
103600
4E8000
ENDCHAR
STARTCHAR colon
ENCODING 58
SWIDTH 156 0
DWIDTH 2 0
BBX 2 3 0 0
BITMAP
06
00
60
ENDCHAR
STARTCHAR semicolon
ENCODING 59
SWIDTH 156 0
DWIDTH 2 0
BBX 2 4 0 -1
BITMAP
06
00
50
30
ENDCHAR
STARTCHAR less
ENCODING 60
SWIDTH 301 0
DWIDTH 4 0
BBX 4 4 0 0
BITMAP
0001
0660
2700
0230
ENDCHAR
STARTCHAR equal
ENCODING 61
SWIDTH 301 0
DWIDTH 4 0
BBX 4 3 0 0
BITMAP
2FF5
0000
7FF1
ENDCHAR
STARTCHAR greater
ENCODING 62
SWIDTH 301 0
DWIDTH 4 0
BBX 4 4 0 0
BITMAP
0100
0440
16A1
7600
ENDCHAR
STARTCHAR question
ENCODING 63
SWIDTH 285 0
DWIDTH 3 0
BBX 5 7 0 0
BITMAP
000300
005480
000150
003300
060000
000000
330000
ENDCHAR
STARTCHAR at
ENCODING 64
SWIDTH 492 0
DWIDTH 6 0
BBX 6 7 0 -2
BITMAP
01BE90
093164
331524
515913
43BA80
082230
003300
ENDCHAR
STARTCHAR A
ENCODING 65
SWIDTH 996 0
DWIDTH 12 0
BBX 12 8 0 0
BITMAP
000000245666
000001100038
000001000361
000000004070
000000CFFE70
110000230050
510003200251
1A76510000A3
ENDCHAR
STARTCHAR B
ENCODING 66
SWIDTH 638 0
DWIDTH 8 0
BBX 8 9 0 0
BITMAP
00000010
00023BB3
0020611A
00007006
00034561
00060074
00150017
47300024
03643340
ENDCHAR
STARTCHAR C
ENCODING 67
SWIDTH 557 0
DWIDTH 7 0
BBX 8 8 0 0
BITMAP
00033465
01500002
06000000
07000000
27000000
18000010
0A100030
01744710
ENDCHAR
STARTCHAR D
ENCODING 68
SWIDTH 799 0
DWIDTH 10 0
BBX 10 9 0 0
BITMAP
0000000010
0024578400
0020019B20
01000712A0
0000070064
0000430017
0000700006
0444300022
6457664320
ENDCHAR
STARTCHAR E
ENCODING 69
SWIDTH 494 0
DWIDTH 6 0
BBX 7 8 0 0
BITMAP
00043650
00240020
00171000
01BF6000
0B410000
36000000
36000200
06434200
ENDCHAR
STARTCHAR F
ENCODING 70
SWIDTH 626 0
DWIDTH 8 0
BBX 10 8 0 0
BITMAP
00003579D4
0002000812
0000004300
0000007000
0000DFFC00
0100015000
4100050000
2853300000
ENDCHAR
STARTCHAR G
ENCODING 71
SWIDTH 571 0
DWIDTH 7 0
BBX 10 10 -1 -2
BITMAP
0000018DD1
00001B4144
0000910020
0003500000
0008100000
0008000600
0202314400
4200007000
5300042000
0743410000
ENDCHAR
STARTCHAR H
ENCODING 72
SWIDTH 865 0
DWIDTH 10 0
BBX 14 9 0 0
BITMAP
00000000000044
00014573000323
00020040003000
00010320041000
00000765260000
018DEDDFFB0000
1B510300630000
52001000701000
31120000760000
ENDCHAR
STARTCHAR I
ENCODING 73
SWIDTH 554 0
DWIDTH 7 0
BBX 9 8 0 0
BITMAP
0000004A50
0000074300
0000432300
0000406000
0000105000
2300222000
5502850000
0BEB400000
ENDCHAR
STARTCHAR J
ENCODING 74
SWIDTH 634 0
DWIDTH 8 0
BBX 10 10 0 -2
BITMAP
00000004A5
0000007530
0000043230
0000040500
0000000500
0220022300
3100018000
5000091000
9114B30000
6ED9100000
ENDCHAR
STARTCHAR K
ENCODING 75
SWIDTH 936 0
DWIDTH 11 0
BBX 12 8 0 0
BITMAP
000045680259
000400322201
000300722000
000200750000
000001570000
130004171000
510014017000
285420005740
ENDCHAR
STARTCHAR L
ENCODING 76
SWIDTH 657 0
DWIDTH 8 0
BBX 9 8 0 0
BITMAP
0000007E70
0000065160
0000170010
0000620000
0000900000
1644600000
8CEE311300
4423BEB000
ENDCHAR
STARTCHAR M
ENCODING 77
SWIDTH 1219 0
DWIDTH 15 0
BBX 16 8 0 0
BITMAP
0000024667710063
0000110000800760
0000100005507600
0000000027162600
1300000145533300
5200001507506000
450003502A007010
0886530043005810
ENDCHAR
STARTCHAR N
ENCODING 78
SWIDTH 990 0
DWIDTH 12 0
BBX 16 8 0 0
BITMAP
0000468700000583
0001000860003201
0000000483004000
000000041A031000
0200004006440000
4100004001830000
5300050000930000
0897600000510000
ENDCHAR
STARTCHAR O
ENCODING 79
SWIDTH 606 0
DWIDTH 7 0
BBX 8 8 0 0
BITMAP
0007DE91
00951197
05200009
06000007
16000006
18000052
0C612750
03CEC400
ENDCHAR
STARTCHAR P
ENCODING 80
SWIDTH 783 0
DWIDTH 9 0
BBX 11 9 0 0
BITMAP
000000001000
00000349A600
000021060830
000020520260
000000600330
000002602400
220003121000
500002000000
175310000000
ENDCHAR
STARTCHAR Q
ENCODING 81
SWIDTH 563 0
DWIDTH 7 0
BBX 9 10 0 -2
BITMAP
0009ED6000
009836E200
0360007400
0700004200
0700001000
0600023000
04616A0000
0217600000
148EC61000
00005BEE80
ENDCHAR
STARTCHAR R
ENCODING 82
SWIDTH 854 0
DWIDTH 10 0
BBX 11 9 0 0
BITMAP
000000011000
0000134BB300
000120711900
000000800600
000003500100
000007440000
120006180000
400041080000
275410029410
ENDCHAR
STARTCHAR S
ENCODING 83
SWIDTH 480 0
DWIDTH 6 0
BBX 7 8 0 0
BITMAP
00028B20
00050230
00060000
00017000
00005200
12000700
52001400
18543000
ENDCHAR
STARTCHAR T
ENCODING 84
SWIDTH 577 0
DWIDTH 7 0
BBX 10 8 0 0
BITMAP
0002BFEC94
0015202201
0030001100
0010005000
0000005000
0100041000
5100130000
2964300000
ENDCHAR
STARTCHAR U
ENCODING 85
SWIDTH 752 0
DWIDTH 9 0
BBX 10 8 0 0
BITMAP
0045760008
0300200035
1202100090
2104000380
0014000930
0042007800
0065184701
002ED40860
ENDCHAR
STARTCHAR V
ENCODING 86
SWIDTH 661 0
DWIDTH 8 0
BBX 8 8 1 0
BITMAP
1563009A
3004002A
20014005
00006002
00006000
00015110
00042000
00060000
ENDCHAR
STARTCHAR W
ENCODING 87
SWIDTH 822 0
DWIDTH 10 0
BBX 12 8 0 0
BITMAP
025850010191
020080150042
110050830050
000043630150
000035340500
000061255100
000060192000
000310170000
ENDCHAR
STARTCHAR X
ENCODING 88
SWIDTH 813 0
DWIDTH 10 0
BBX 11 8 0 0
BITMAP
000086016A10
000228140200
000008300000
000007100000
000006400000
000021A00000
220220971300
4963001BD100
ENDCHAR
STARTCHAR Y
ENCODING 89
SWIDTH 662 0
DWIDTH 8 0
BBX 11 10 0 -2
BITMAP
000147000340
000107000800
000024003600
00005000A000
001050075000
230081780000
6000BD620000
800001300000
841267000000
0BEC50000000
ENDCHAR
STARTCHAR Z
ENCODING 90
SWIDTH 625 0
DWIDTH 8 0
BBX 9 9 0 0
BITMAP
0000000010
0001BFFD10
0004101100
0002001000
0000000000
0001000000
0011000200
0220015000
2DFFFB2000
ENDCHAR
STARTCHAR bracketleft
ENCODING 91
SWIDTH 318 0
DWIDTH 4 0
BBX 4 8 1 -1
BITMAP
0273
0520
0700
0700
2500
6100
8000
A200
ENDCHAR
STARTCHAR backslash
ENCODING 92
SWIDTH 212 0
DWIDTH 3 0
BBX 3 9 0 -1
BITMAP
2000
4000
4000
2200
0400
0400
0400
0400
0110
ENDCHAR
STARTCHAR bracketright
ENCODING 93
SWIDTH 339 0
DWIDTH 4 0
BBX 5 8 0 -1
BITMAP
001740
000700
000700
001600
004300
007000
007000
246000
ENDCHAR
STARTCHAR asciicircum
ENCODING 94
SWIDTH 272 0
DWIDTH 3 0
BBX 3 3 0 2
BITMAP
0270
0880
2360
ENDCHAR
STARTCHAR underscore
ENCODING 95
SWIDTH 356 0
DWIDTH 4 0
BBX 5 2 -1 -1
BITMAP
000100
1B9850
ENDCHAR
STARTCHAR grave
ENCODING 96
SWIDTH 155 0
DWIDTH 2 0
BBX 2 3 0 3
BITMAP
10
40
02
ENDCHAR
STARTCHAR a
ENCODING 97
SWIDTH 294 0
DWIDTH 4 0
BBX 4 3 0 0
BITMAP
1AE3
7430
6271
ENDCHAR
STARTCHAR b
ENCODING 98
SWIDTH 247 0
DWIDTH 3 0
BBX 7 9 0 0
BITMAP
00014630
00030000
00300000
01300000
04000000
05000000
26800000
61400000
74100000
ENDCHAR
STARTCHAR c
ENCODING 99
SWIDTH 203 0
DWIDTH 2 0
BBX 3 4 0 0
BITMAP
0710
0300
5010
7600
ENDCHAR
STARTCHAR d
ENCODING 100
SWIDTH 285 0
DWIDTH 3 0
BBX 8 9 0 0
BITMAP
00000155
00001200
00003000
00021000
00040000
00140000
13700000
50800000
74810000
ENDCHAR
STARTCHAR e
ENCODING 101
SWIDTH 206 0
DWIDTH 2 0
BBX 3 3 0 0
BITMAP
1450
5200
6400
ENDCHAR
STARTCHAR f
ENCODING 102
SWIDTH 156 0
DWIDTH 2 0
BBX 11 12 -4 -3
BITMAP
000000004820
000000030000
000000310000
000000500000
000003300000
000006000000
00004EB00000
000016000000
000051000000
000050000000
000410000000
332100000000
ENDCHAR
STARTCHAR g
ENCODING 103
SWIDTH 210 0
DWIDTH 3 0
BBX 5 6 -2 -3
BITMAP
001560
005420
007900
230600
570620
0BEA00
ENDCHAR
STARTCHAR h
ENCODING 104
SWIDTH 292 0
DWIDTH 4 0
BBX 7 9 0 0
BITMAP
00003560
00020000
00210000
00400000
02200000
05000000
06630000
44600000
60710000
ENDCHAR
STARTCHAR i
ENCODING 105
SWIDTH 149 0
DWIDTH 2 0
BBX 3 5 0 0
BITMAP
0210
0000
1500
5100
7200
ENDCHAR
STARTCHAR j
ENCODING 106
SWIDTH 136 0
DWIDTH 2 0
BBX 7 8 -4 -3
BITMAP
00000210
00000000
00001400
00003200
00004000
00003000
00020000
44200000
ENDCHAR
STARTCHAR k
ENCODING 107
SWIDTH 259 0
DWIDTH 3 0
BBX 7 9 0 0
BITMAP
00003550
00030000
00210000
00300000
04000000
05000000
16700000
56100000
64400000
ENDCHAR
STARTCHAR l
ENCODING 108
SWIDTH 134 0
DWIDTH 2 0
BBX 6 10 0 -1
BITMAP
000177
000500
004100
015000
061000
070000
350000
710000
700000
130000
ENDCHAR
STARTCHAR m
ENCODING 109
SWIDTH 413 0
DWIDTH 5 0
BBX 5 4 0 -1
BITMAP
177270
347170
606340
000030
ENDCHAR
STARTCHAR n
ENCODING 110
SWIDTH 291 0
DWIDTH 3 0
BBX 4 3 0 0
BITMAP
3763
3460
6071
ENDCHAR
STARTCHAR o
ENCODING 111
SWIDTH 225 0
DWIDTH 3 0
BBX 3 3 0 0
BITMAP
1050
4040
5000
ENDCHAR
STARTCHAR p
ENCODING 112
SWIDTH 261 0
DWIDTH 3 0
BBX 4 7 -1 -3
BITMAP
0022
0105
031A
0BD3
1500
4200
5200
ENDCHAR
STARTCHAR q
ENCODING 113
SWIDTH 269 0
DWIDTH 3 0
BBX 4 6 0 -3
BITMAP
1353
6070
7540
0600
0700
0900
ENDCHAR
STARTCHAR r
ENCODING 114
SWIDTH 195 0
DWIDTH 2 0
BBX 2 3 0 0
BITMAP
24
23
50
ENDCHAR
STARTCHAR s
ENCODING 115
SWIDTH 188 0
DWIDTH 2 0
BBX 3 3 0 0
BITMAP
1620
0700
5600
ENDCHAR
STARTCHAR t
ENCODING 116
SWIDTH 171 0
DWIDTH 2 0
BBX 3 5 0 0
BITMAP
0120
0600
2E50
5400
6300
ENDCHAR
STARTCHAR u
ENCODING 117
SWIDTH 299 0
DWIDTH 4 0
BBX 4 3 0 0
BITMAP
2532
6170
7371
ENDCHAR
STARTCHAR v
ENCODING 118
SWIDTH 271 0
DWIDTH 3 0
BBX 4 3 0 0
BITMAP
2642
1480
5810
ENDCHAR
STARTCHAR w
ENCODING 119
SWIDTH 369 0
DWIDTH 4 0
BBX 5 3 0 0
BITMAP
444330
166120
247200
ENDCHAR
STARTCHAR x
ENCODING 120
SWIDTH 263 0
DWIDTH 3 0
BBX 4 3 0 0
BITMAP
16C3
0921
6440
ENDCHAR
STARTCHAR y
ENCODING 121
SWIDTH 280 0
DWIDTH 3 0
BBX 7 6 -3 -3
BITMAP
00015330
00051800
00063600
00003200
14004000
07330000
ENDCHAR
STARTCHAR z
ENCODING 122
SWIDTH 238 0
DWIDTH 3 0
BBX 3 3 0 0
BITMAP
1560
0300
7630
ENDCHAR
STARTCHAR braceleft
ENCODING 123
SWIDTH 291 0
DWIDTH 3 0
BBX 4 10 1 -2
BITMAP
0031
0420
0600
0600
5200
4300
6000
7000
8000
0100
ENDCHAR
STARTCHAR bar
ENCODING 124
SWIDTH 162 0
DWIDTH 2 0
BBX 2 11 0 -3
BITMAP
13
13
13
13
13
13
13
13
13
13
13
ENDCHAR
STARTCHAR braceright
ENCODING 125
SWIDTH 285 0
DWIDTH 3 0
BBX 4 10 0 -2
BITMAP
0031
0007
0016
0061
0062
0050
0240
0520
1600
2000
ENDCHAR
STARTCHAR asciitilde
ENCODING 126
SWIDTH 383 0
DWIDTH 5 0
BBX 5 2 0 1
BITMAP
0B8110
12AA00
ENDCHAR
STARTCHAR space.dup1
ENCODING 160
SWIDTH 150 0
DWIDTH 2 0
BBX 1 1 0 0
BITMAP
00
ENDCHAR
STARTCHAR exclamdown
ENCODING 161
SWIDTH 189 0
DWIDTH 2 0
BBX 4 7 -1 -4
BITMAP
0052
0000
0130
0400
0500
5200
7000
ENDCHAR
STARTCHAR cent
ENCODING 162
SWIDTH 194 0
DWIDTH 2 0
BBX 3 7 0 -2
BITMAP
0020
0660
3700
7500
A500
3000
1000
ENDCHAR
STARTCHAR sterling
ENCODING 163
SWIDTH 344 0
DWIDTH 4 0
BBX 4 4 0 0
BITMAP
0038
0261
0610
6973
ENDCHAR
STARTCHAR currency
ENCODING 164
SWIDTH 344 0
DWIDTH 4 0
BBX 4 4 0 0
BITMAP
0201
1304
2102
1101
ENDCHAR
STARTCHAR yen
ENCODING 165
SWIDTH 309 0
DWIDTH 4 0
BBX 4 4 0 0
BITMAP
1512
5CA0
0600
8F70
ENDCHAR
STARTCHAR brokenbar
ENCODING 166
SWIDTH 162 0
DWIDTH 2 0
BBX 1 11 1 -3
BITMAP
30
30
30
30
00
00
00
30
30
30
30
ENDCHAR
STARTCHAR section
ENCODING 167
SWIDTH 395 0
DWIDTH 5 0
BBX 7 10 -1 -3
BITMAP
00000200
00035370
00171020
00472000
00365000
00177000
00077000
10066000
60044000
48550000
ENDCHAR
STARTCHAR dieresis
ENCODING 168
SWIDTH 174 0
DWIDTH 2 0
BBX 2 1 0 4
BITMAP
44
ENDCHAR
STARTCHAR copyright
ENCODING 169
SWIDTH 331 0
DWIDTH 4 0
BBX 4 4 0 1
BITMAP
0151
1315
3224
0760
ENDCHAR
STARTCHAR ordfeminine
ENCODING 170
SWIDTH 226 0
DWIDTH 3 0
BBX 3 2 0 2
BITMAP
3510
0500
ENDCHAR
STARTCHAR guillemotleft
ENCODING 171
SWIDTH 289 0
DWIDTH 3 0
BBX 4 3 0 0
BITMAP
0364
6940
27E0
ENDCHAR
STARTCHAR logicalnot
ENCODING 172
SWIDTH 265 0
DWIDTH 3 0
BBX 3 4 0 1
BITMAP
0010
BEC0
0060
0010
ENDCHAR
STARTCHAR registered
ENCODING 174
SWIDTH 331 0
DWIDTH 4 0
BBX 4 4 0 1
BITMAP
0020
0031
3445
2A92
ENDCHAR
STARTCHAR degree
ENCODING 176
SWIDTH 104 0
DWIDTH 1 0
BBX 1 2 1 3
BITMAP
80
A0
ENDCHAR
STARTCHAR plusminus
ENCODING 177
SWIDTH 301 0
DWIDTH 4 0
BBX 4 4 0 0
BITMAP
0010
0140
4FF3
3820
ENDCHAR
STARTCHAR twosuperior
ENCODING 178
SWIDTH 215 0
DWIDTH 3 0
BBX 3 2 0 2
BITMAP
0430
1600
ENDCHAR
STARTCHAR threesuperior
ENCODING 179
SWIDTH 190 0
DWIDTH 2 0
BBX 2 2 0 2
BITMAP
06
15
ENDCHAR
STARTCHAR acute
ENCODING 180
SWIDTH 157 0
DWIDTH 2 0
BBX 2 2 0 3
BITMAP
17
41
ENDCHAR
STARTCHAR mu
ENCODING 181
SWIDTH 324 0
DWIDTH 4 0
BBX 5 5 -1 -2
BITMAP
004160
025920
06B630
060000
230000
ENDCHAR
STARTCHAR paragraph
ENCODING 182
SWIDTH 392 0
DWIDTH 5 0
BBX 6 7 -1 -3
BITMAP
000678
008F54
00DE60
006960
001640
404600
846100
ENDCHAR
STARTCHAR periodcentered
ENCODING 183
SWIDTH 112 0
DWIDTH 1 0
BBX 1 1 0 1
BITMAP
60
ENDCHAR
STARTCHAR cedilla
ENCODING 184
SWIDTH 115 0
DWIDTH 1 0
BBX 1 1 0 -1
BITMAP
30
ENDCHAR
STARTCHAR onesuperior
ENCODING 185
SWIDTH 174 0
DWIDTH 2 0
BBX 2 2 0 2
BITMAP
38
21
ENDCHAR
STARTCHAR ordmasculine
ENCODING 186
SWIDTH 178 0
DWIDTH 2 0
BBX 2 2 0 2
BITMAP
35
14
ENDCHAR
STARTCHAR guillemotright
ENCODING 187
SWIDTH 276 0
DWIDTH 3 0
BBX 4 3 -1 0
BITMAP
0565
0067
1440
ENDCHAR
STARTCHAR onequarter
ENCODING 188
SWIDTH 435 0
DWIDTH 5 0
BBX 5 5 0 -1
BITMAP
052230
051300
034550
041C50
200000
ENDCHAR
STARTCHAR onehalf
ENCODING 189
SWIDTH 434 0
DWIDTH 5 0
BBX 5 5 0 -1
BITMAP
052230
051440
034150
041630
200000
ENDCHAR
STARTCHAR threequarters
ENCODING 190
SWIDTH 476 0
DWIDTH 6 0
BBX 6 5 0 -1
BITMAP
034040
034412
134260
022260
020000
ENDCHAR
STARTCHAR questiondown
ENCODING 191
SWIDTH 285 0
DWIDTH 3 0
BBX 5 7 -1 -4
BITMAP
000330
000000
000600
033000
510000
745000
030000
ENDCHAR
STARTCHAR Agrave
ENCODING 192
SWIDTH 996 0
DWIDTH 12 0
BBX 12 9 0 0
BITMAP
000000000034
000000245666
000001100038
000001000361
000000004070
000000CFFE70
110000230050
510003200251
1A76510000A3
ENDCHAR
STARTCHAR Aacute
ENCODING 193
SWIDTH 996 0
DWIDTH 12 0
BBX 13 9 0 0
BITMAP
00000000001610
00000024566600
00000110003800
00000100036100
00000000407000
000000CFFE7000
11000023005000
51000320025100
1A76510000A300
ENDCHAR
STARTCHAR Acircumflex
ENCODING 194
SWIDTH 996 0
DWIDTH 12 0
BBX 13 10 0 0
BITMAP
00000000001A40
00000000000000
00000024566600
00000110003800
00000100036100
00000000407000
000000CFFE7000
11000023005000
51000320025100
1A76510000A300
ENDCHAR
STARTCHAR Atilde
ENCODING 195
SWIDTH 996 0
DWIDTH 12 0
BBX 13 9 0 0
BITMAP
00000000003950
00000024566600
00000110003800
00000100036100
00000000407000
000000CFFE7000
11000023005000
51000320025100
1A76510000A300
ENDCHAR
STARTCHAR Adieresis
ENCODING 196
SWIDTH 996 0
DWIDTH 12 0
BBX 13 9 0 0
BITMAP
00000000000330
00000024566600
00000110003800
00000100036100
00000000407000
000000CFFE7000
11000023005000
51000320025100
1A76510000A300
ENDCHAR
STARTCHAR Aring
ENCODING 197
SWIDTH 996 0
DWIDTH 12 0
BBX 13 10 0 0
BITMAP
00000000000620
00000000000220
00000024566600
00000110003800
00000100036100
00000000407000
000000CFFE7000
11000023005000
51000320025100
1A76510000A300
ENDCHAR
STARTCHAR AE
ENCODING 198
SWIDTH 1271 0
DWIDTH 15 0
BBX 16 8 0 0
BITMAP
0000002456662347
0000011000387002
0000010003436500
0000000040753100
000000AFFFD00000
1100002300700000
5100033000900040
1A86510000463440
ENDCHAR
STARTCHAR Ccedilla
ENCODING 199
SWIDTH 557 0
DWIDTH 7 0
BBX 8 9 0 -1
BITMAP
00122465
01300002
06000000
07000000
27000000
1B000030
08921710
00493000
00030000
ENDCHAR
STARTCHAR Egrave
ENCODING 200
SWIDTH 463 0
DWIDTH 6 0
BBX 7 9 0 0
BITMAP
00005200
00144810
00700200
00450000
05DE1000
3A200000
81000000
80000200
26335000
ENDCHAR
STARTCHAR Eacute
ENCODING 201
SWIDTH 463 0
DWIDTH 6 0
BBX 7 9 0 0
BITMAP
00004400
00144810
00700200
00450000
05DE1000
3A200000
81000000
80000200
26335000
ENDCHAR
STARTCHAR Ecircumflex
ENCODING 202
SWIDTH 463 0
DWIDTH 6 0
BBX 7 10 0 0
BITMAP
0001A400
00000000
00144810
00700200
00450000
05DE1000
3A200000
81000000
80000200
26335000
ENDCHAR
STARTCHAR Edieresis
ENCODING 203
SWIDTH 463 0
DWIDTH 6 0
BBX 7 9 0 0
BITMAP
00003300
00144810
00700200
00450000
05DE1000
3A200000
81000000
80000200
26335000
ENDCHAR
STARTCHAR Igrave
ENCODING 204
SWIDTH 514 0
DWIDTH 6 0
BBX 9 10 0 0
BITMAP
0000001000
0000000000
0000018920
0000283100
0000705000
0002205000
0001041000
4000350000
9114A10000
4ED8100000
ENDCHAR
STARTCHAR Iacute
ENCODING 205
SWIDTH 514 0
DWIDTH 6 0
BBX 9 10 0 0
BITMAP
0000003400
0000000000
0000018920
0000283100
0000705000
0002205000
0001041000
4000350000
9114A10000
4ED8100000
ENDCHAR
STARTCHAR Icircumflex
ENCODING 206
SWIDTH 514 0
DWIDTH 6 0
BBX 9 10 0 0
BITMAP
0000006900
0000000000
0000018920
0000283100
0000705000
0002205000
0001041000
4000350000
9114A10000
4ED8100000
ENDCHAR
STARTCHAR Idieresis
ENCODING 207
SWIDTH 514 0
DWIDTH 6 0
BBX 9 9 0 0
BITMAP
0000003300
0000018920
0000283100
0000705000
0002205000
0001041000
4000350000
9114A10000
4ED8100000
ENDCHAR
STARTCHAR Eth
ENCODING 208
SWIDTH 800 0
DWIDTH 10 0
BBX 10 10 0 -1
BITMAP
0000000010
0024568400
0020024620
0000060070
0000160044
0009FFC017
0000610006
0112600002
5456111330
0000012100
ENDCHAR
STARTCHAR Ntilde
ENCODING 209
SWIDTH 796 0
DWIDTH 10 0
BBX 15 9 -2 0
BITMAP
0000000004940000
0002578400000790
0001000B20005010
00000015A0022000
0000004146040000
2000004009140000
5000022005710000
7000240000B00000
2A87400000500000
ENDCHAR
STARTCHAR Ograve
ENCODING 210
SWIDTH 608 0
DWIDTH 7 0
BBX 8 8 0 0
BITMAP
0007DEA1
00951188
05200009
06000007
16000006
19000052
0C612760
02CEC500
ENDCHAR
STARTCHAR Oacute
ENCODING 211
SWIDTH 608 0
DWIDTH 7 0
BBX 8 10 0 0
BITMAP
00001600
00000000
0007DEA1
00951188
05200009
06000007
16000006
19000052
0C612760
02CEC500
ENDCHAR
STARTCHAR Ocircumflex
ENCODING 212
SWIDTH 608 0
DWIDTH 7 0
BBX 8 10 0 0
BITMAP
00002620
00000000
0007DEA1
00951188
05200009
06000007
16000006
19000052
0C612760
02CEC500
ENDCHAR
STARTCHAR Otilde
ENCODING 213
SWIDTH 608 0
DWIDTH 7 0
BBX 8 9 0 0
BITMAP
00006600
0007DEA1
00951188
05200009
06000007
16000006
19000052
0C612760
02CEC500
ENDCHAR
STARTCHAR Odieresis
ENCODING 214
SWIDTH 608 0
DWIDTH 7 0
BBX 8 10 0 0
BITMAP
00001410
00000000
0007DEA1
00951188
05200009
06000007
16000006
19000052
0C612760
02CEC500
ENDCHAR
STARTCHAR multiply
ENCODING 215
SWIDTH 301 0
DWIDTH 4 0
BBX 4 3 0 0
BITMAP
0561
0130
1230
ENDCHAR
STARTCHAR Oslash
ENCODING 216
SWIDTH 605 0
DWIDTH 7 0
BBX 8 9 0 -1
BITMAP
0007DE10
00961412
06302506
08006008
16061019
16430083
07111970
05CFC400
01000000
ENDCHAR
STARTCHAR Ugrave
ENCODING 217
SWIDTH 717 0
DWIDTH 9 0
BBX 10 9 0 0
BITMAP
0000004300
0256820026
1201200070
2003000270
3022000A20
0050004A00
0070017700
00A13A1610
007EA11A30
ENDCHAR
STARTCHAR Uacute
ENCODING 218
SWIDTH 717 0
DWIDTH 9 0
BBX 10 9 0 0
BITMAP
0000000610
0256820026
1201200070
2003000270
3022000A20
0050004A00
0070017700
00A13A1610
007EA11A30
ENDCHAR
STARTCHAR Ucircumflex
ENCODING 219
SWIDTH 718 0
DWIDTH 9 0
BBX 10 9 0 0
BITMAP
0000002710
0256820026
1201200070
2003000270
3022000920
0050004A00
0070018700
00A13A1610
007EA11A30
ENDCHAR
STARTCHAR Udieresis
ENCODING 220
SWIDTH 718 0
DWIDTH 9 0
BBX 10 9 0 0
BITMAP
0000003300
0256820026
1201200070
2003000270
3022000A20
0050004A00
0070017700
00A13A1610
007EA11A30
ENDCHAR
STARTCHAR Yacute
ENCODING 221
SWIDTH 662 0
DWIDTH 8 0
BBX 11 11 0 -2
BITMAP
000000024000
000147000340
000107000800
000024003600
00005000A000
001050075000
230081780000
6000BD620000
800001300000
841267000000
0BEC50000000
ENDCHAR
STARTCHAR Thorn
ENCODING 222
SWIDTH 745 0
DWIDTH 9 0
BBX 10 8 0 0
BITMAP
0000000130
0000000600
0000037EA0
00002093A5
000000B024
2100067130
500014AA20
1754300000
ENDCHAR
STARTCHAR germandbls
ENCODING 223
SWIDTH 304 0
DWIDTH 4 0
BBX 11 12 -4 -3
BITMAP
000000058410
000000240450
000000302C10
00000006C300
0000027A1000
000003900000
000021200000
000030310000
000037E20000
000110000000
000100000000
542000000000
ENDCHAR
STARTCHAR agrave
ENCODING 224
SWIDTH 294 0
DWIDTH 4 0
BBX 4 6 0 0
BITMAP
0010
0050
0002
1AE3
7430
6271
ENDCHAR
STARTCHAR aacute
ENCODING 225
SWIDTH 294 0
DWIDTH 4 0
BBX 4 5 0 0
BITMAP
0035
0040
1AE3
7430
6271
ENDCHAR
STARTCHAR acircumflex
ENCODING 226
SWIDTH 294 0
DWIDTH 4 0
BBX 4 6 0 0
BITMAP
0030
0122
0000
1AE3
7430
6271
ENDCHAR
STARTCHAR atilde
ENCODING 227
SWIDTH 294 0
DWIDTH 4 0
BBX 4 5 0 0
BITMAP
0373
03A3
1AE3
7430
6271
ENDCHAR
STARTCHAR adieresis
ENCODING 228
SWIDTH 284 0
DWIDTH 3 0
BBX 4 5 0 0
BITMAP
0142
0000
1AE3
7430
6271
ENDCHAR
STARTCHAR aring
ENCODING 229
SWIDTH 294 0
DWIDTH 4 0
BBX 4 5 0 0
BITMAP
0070
0090
1AE3
7430
6271
ENDCHAR
STARTCHAR ae
ENCODING 230
SWIDTH 363 0
DWIDTH 4 0
BBX 5 4 0 0
BITMAP
000300
127630
508200
747300
ENDCHAR
STARTCHAR ccedilla
ENCODING 231
SWIDTH 203 0
DWIDTH 2 0
BBX 3 6 0 -2
BITMAP
0700
0300
4010
7600
2200
2000
ENDCHAR
STARTCHAR egrave
ENCODING 232
SWIDTH 206 0
DWIDTH 2 0
BBX 3 6 0 0
BITMAP
0100
0310
0020
1450
5200
6400
ENDCHAR
STARTCHAR eacute
ENCODING 233
SWIDTH 206 0
DWIDTH 2 0
BBX 3 5 0 0
BITMAP
0090
0130
1450
5200
6400
ENDCHAR
STARTCHAR ecircumflex
ENCODING 234
SWIDTH 206 0
DWIDTH 2 0
BBX 3 6 0 0
BITMAP
0210
0230
0000
1450
5200
6400
ENDCHAR
STARTCHAR edieresis
ENCODING 235
SWIDTH 206 0
DWIDTH 2 0
BBX 3 5 0 0
BITMAP
0440
0000
1450
5200
6400
ENDCHAR
STARTCHAR igrave
ENCODING 236
SWIDTH 149 0
DWIDTH 2 0
BBX 3 6 0 0
BITMAP
0100
0500
0020
1500
5100
7200
ENDCHAR
STARTCHAR iacute
ENCODING 237
SWIDTH 149 0
DWIDTH 2 0
BBX 3 5 0 0
BITMAP
0180
0410
1500
5100
7200
ENDCHAR
STARTCHAR icircumflex
ENCODING 238
SWIDTH 149 0
DWIDTH 2 0
BBX 3 6 0 0
BITMAP
0300
1220
0000
1500
5100
7200
ENDCHAR
STARTCHAR idieresis
ENCODING 239
SWIDTH 149 0
DWIDTH 2 0
BBX 3 5 0 0
BITMAP
0440
0000
1500
5100
7200
ENDCHAR
STARTCHAR eth
ENCODING 240
SWIDTH 234 0
DWIDTH 3 0
BBX 3 8 0 0
BITMAP
3000
5200
0910
1240
0050
1150
5040
6510
ENDCHAR
STARTCHAR ntilde
ENCODING 241
SWIDTH 291 0
DWIDTH 3 0
BBX 4 5 0 0
BITMAP
0373
03A3
3763
3460
6071
ENDCHAR
STARTCHAR ograve
ENCODING 242
SWIDTH 225 0
DWIDTH 3 0
BBX 3 6 0 0
BITMAP
0100
0230
0020
1050
4040
5000
ENDCHAR
STARTCHAR oacute
ENCODING 243
SWIDTH 225 0
DWIDTH 3 0
BBX 3 5 0 0
BITMAP
0090
0140
1050
4040
5000
ENDCHAR
STARTCHAR ocircumflex
ENCODING 244
SWIDTH 225 0
DWIDTH 3 0
BBX 3 6 0 0
BITMAP
0030
0230
0000
1050
4040
5000
ENDCHAR
STARTCHAR otilde
ENCODING 245
SWIDTH 225 0
DWIDTH 3 0
BBX 4 5 0 0
BITMAP
0832
04C0
1050
4040
5000
ENDCHAR
STARTCHAR odieresis
ENCODING 246
SWIDTH 225 0
DWIDTH 3 0
BBX 3 5 0 0
BITMAP
0440
0000
1050
4040
5000
ENDCHAR
STARTCHAR divide
ENCODING 247
SWIDTH 301 0
DWIDTH 4 0
BBX 4 4 0 0
BITMAP
0020
0000
1441
0200
ENDCHAR
STARTCHAR oslash
ENCODING 248
SWIDTH 225 0
DWIDTH 3 0
BBX 3 5 0 -1
BITMAP
0010
1570
5340
8500
1000
ENDCHAR
STARTCHAR ugrave
ENCODING 249
SWIDTH 299 0
DWIDTH 4 0
BBX 4 6 0 0
BITMAP
0010
0050
0002
2532
6170
7371
ENDCHAR
STARTCHAR uacute
ENCODING 250
SWIDTH 299 0
DWIDTH 4 0
BBX 4 5 0 0
BITMAP
0026
0040
2532
6170
7371
ENDCHAR
STARTCHAR ucircumflex
ENCODING 251
SWIDTH 299 0
DWIDTH 4 0
BBX 4 6 0 0
BITMAP
0030
0122
0000
2532
6170
7371
ENDCHAR
STARTCHAR udieresis
ENCODING 252
SWIDTH 299 0
DWIDTH 4 0
BBX 4 5 0 0
BITMAP
0133
0000
2532
6170
7371
ENDCHAR
STARTCHAR yacute
ENCODING 253
SWIDTH 280 0
DWIDTH 3 0
BBX 7 8 -3 -3
BITMAP
00000170
00000410
00015330
00051800
00063600
00003200
14004000
07330000
ENDCHAR
STARTCHAR thorn
ENCODING 254
SWIDTH 261 0
DWIDTH 3 0
BBX 4 9 -1 -3
BITMAP
0015
0014
0042
0025
011A
09D3
0400
3200
5300
ENDCHAR
STARTCHAR ydieresis
ENCODING 255
SWIDTH 280 0
DWIDTH 3 0
BBX 7 8 -3 -3
BITMAP
00001430
00000000
00015330
00051800
00063600
00003200
14004000
07330000
ENDCHAR
STARTCHAR dotlessi
ENCODING 305
SWIDTH 149 0
DWIDTH 2 0
BBX 2 3 0 0
BITMAP
15
51
72
ENDCHAR
STARTCHAR Lslash
ENCODING 321
SWIDTH 657 0
DWIDTH 8 0
BBX 9 8 0 0
BITMAP
0000007E60
0000054160
0000162010
0002880000
0000A00000
1644700000
627E311300
6EA3BEB000
ENDCHAR
STARTCHAR lslash
ENCODING 322
SWIDTH 134 0
DWIDTH 2 0
BBX 6 10 0 -1
BITMAP
000167
000500
004100
015000
072000
070000
350000
710000
700000
130000
ENDCHAR
STARTCHAR OE
ENCODING 338
SWIDTH 827 0
DWIDTH 10 0
BBX 11 8 0 0
BITMAP
0007DEA43650
009512940020
052000281000
0600019E6000
16000B410000
180036000000
0C6125000200
03CEC8434200
ENDCHAR
STARTCHAR oe
ENCODING 339
SWIDTH 345 0
DWIDTH 4 0
BBX 5 3 0 0
BITMAP
147710
407100
649300
ENDCHAR
STARTCHAR Scaron
ENCODING 352
SWIDTH 480 0
DWIDTH 6 0
BBX 7 10 0 0
BITMAP
00003510
00000000
00028B20
00050230
00060000
00017000
00005200
12000700
52001400
18543000
ENDCHAR
STARTCHAR scaron
ENCODING 353
SWIDTH 188 0
DWIDTH 2 0
BBX 3 5 0 0
BITMAP
0310
0000
1620
0700
5600
ENDCHAR
STARTCHAR Ydieresis
ENCODING 376
SWIDTH 662 0
DWIDTH 8 0
BBX 11 11 0 -2
BITMAP
000000043000
000147000340
000107000800
000024003600
00005000A000
001050075000
230081780000
6000BD620000
800001300000
841267000000
0BEC50000000
ENDCHAR
STARTCHAR Zcaron
ENCODING 381
SWIDTH 625 0
DWIDTH 8 0
BBX 9 10 0 0
BITMAP
0000035100
0000000010
0001BFFD10
0004101100
0002001000
0000000000
0001000000
0011000200
0220015000
2DFFFB2000
ENDCHAR
STARTCHAR zcaron
ENCODING 382
SWIDTH 248 0
DWIDTH 3 0
BBX 3 5 0 0
BITMAP
0210
0000
1660
0300
7530
ENDCHAR
STARTCHAR florin
ENCODING 402
SWIDTH 214 0
DWIDTH 3 0
BBX 4 5 -1 -1
BITMAP
004E
0070
07E5
0420
3300
ENDCHAR
STARTCHAR circumflex
ENCODING 710
SWIDTH 196 0
DWIDTH 2 0
BBX 2 2 0 4
BITMAP
03
23
ENDCHAR
STARTCHAR caron
ENCODING 711
SWIDTH 196 0
DWIDTH 2 0
BBX 2 1 0 4
BITMAP
31
ENDCHAR
STARTCHAR breve
ENCODING 728
SWIDTH 198 0
DWIDTH 2 0
BBX 2 1 0 4
BITMAP
22
ENDCHAR
STARTCHAR dotaccent
ENCODING 729
SWIDTH 89 0
DWIDTH 1 0
BBX 1 1 0 4
BITMAP
50
ENDCHAR
STARTCHAR ring
ENCODING 730
SWIDTH 117 0
DWIDTH 1 0
BBX 2 2 0 3
BITMAP
51
90
ENDCHAR
STARTCHAR ogonek
ENCODING 731
SWIDTH 124 0
DWIDTH 1 0
BBX 1 2 0 -2
BITMAP
30
30
ENDCHAR
STARTCHAR tilde
ENCODING 732
SWIDTH 222 0
DWIDTH 3 0
BBX 3 2 0 3
BITMAP
6430
3C10
ENDCHAR
STARTCHAR hungarumlaut
ENCODING 733
SWIDTH 253 0
DWIDTH 3 0
BBX 3 2 0 3
BITMAP
2880
6520
ENDCHAR
STARTCHAR mu.dup2
ENCODING 956
SWIDTH 324 0
DWIDTH 4 0
BBX 5 5 -1 -2
BITMAP
004160
025920
06B630
060000
230000
ENDCHAR
STARTCHAR endash
ENCODING 8211
SWIDTH 500 0
DWIDTH 6 0
BBX 6 1 0 1
BITMAP
BFFFFA
ENDCHAR
STARTCHAR emdash
ENCODING 8212
SWIDTH 1000 0
DWIDTH 12 0
BBX 12 1 0 1
BITMAP
BFFFFFFFFFFA
ENDCHAR
STARTCHAR quoteleft
ENCODING 8216
SWIDTH 87 0
DWIDTH 1 0
BBX 2 2 0 3
BITMAP
13
41
ENDCHAR
STARTCHAR quoteright
ENCODING 8217
SWIDTH 87 0
DWIDTH 1 0
BBX 2 2 0 3
BITMAP
06
12
ENDCHAR
STARTCHAR quotesinglbase
ENCODING 8218
SWIDTH 112 0
DWIDTH 1 0
BBX 1 1 0 0
BITMAP
50
ENDCHAR
STARTCHAR quotedblleft
ENCODING 8220
SWIDTH 167 0
DWIDTH 2 0
BBX 3 2 0 3
BITMAP
1420
4610
ENDCHAR
STARTCHAR quotedblright
ENCODING 8221
SWIDTH 167 0
DWIDTH 2 0
BBX 3 2 0 3
BITMAP
0660
1320
ENDCHAR
STARTCHAR quotedblbase
ENCODING 8222
SWIDTH 192 0
DWIDTH 2 0
BBX 2 2 0 -1
BITMAP
66
33
ENDCHAR
STARTCHAR dagger
ENCODING 8224
SWIDTH 185 0
DWIDTH 2 0
BBX 3 9 0 -2
BITMAP
0010
0230
0500
4EA0
0400
1200
3000
3000
2000
ENDCHAR
STARTCHAR daggerdbl
ENCODING 8225
SWIDTH 185 0
DWIDTH 2 0
BBX 4 8 -1 -1
BITMAP
0001
0023
0050
04EB
0130
3EC2
0300
0200
ENDCHAR
STARTCHAR bullet
ENCODING 8226
SWIDTH 207 0
DWIDTH 2 0
BBX 2 1 0 1
BITMAP
3C
ENDCHAR
STARTCHAR ellipsis
ENCODING 8230
SWIDTH 376 0
DWIDTH 5 0
BBX 1 1 4 0
BITMAP
00
ENDCHAR
STARTCHAR perthousand
ENCODING 8240
SWIDTH 571 0
DWIDTH 7 0
BBX 7 6 0 -1
BITMAP
00012000
4A140000
52331110
12536460
04554620
30000000
ENDCHAR
STARTCHAR guilsinglleft
ENCODING 8249
SWIDTH 189 0
DWIDTH 2 0
BBX 3 3 0 0
BITMAP
0310
6100
2600
ENDCHAR
STARTCHAR guilsinglright
ENCODING 8250
SWIDTH 176 0
DWIDTH 2 0
BBX 3 3 -1 0
BITMAP
0530
0060
1300
ENDCHAR
STARTCHAR fraction
ENCODING 8260
SWIDTH 220 0
DWIDTH 3 0
BBX 5 5 -1 -1
BITMAP
000130
000400
004000
040000
110000
ENDCHAR
STARTCHAR Euro
ENCODING 8364
SWIDTH 360 0
DWIDTH 4 0
BBX 4 4 0 0
BITMAP
0304
9F90
5200
5330
ENDCHAR
STARTCHAR trademark
ENCODING 8482
SWIDTH 389 0
DWIDTH 5 0
BBX 5 2 0 2
BITMAP
152520
033410
ENDCHAR
STARTCHAR minus
ENCODING 8722
SWIDTH 301 0
DWIDTH 4 0
BBX 4 1 0 1
BITMAP
4FF3
ENDCHAR
STARTCHAR fi
ENCODING 64257
SWIDTH 297 0
DWIDTH 4 0
BBX 11 12 -4 -3
BITMAP
000000004820
000000030000
000000310000
000000521000
000003330000
000006000000
00006FE40000
000016200000
000051710000
000050000000
000410000000
332100000000
ENDCHAR
STARTCHAR fl
ENCODING 64258
SWIDTH 290 0
DWIDTH 3 0
BBX 12 12 -4 -3
BITMAP
000000006765
000000040200
000000412000
000000511000
000003330000
000006030000
00005FE10000
000016300000
000051820000
000050000000
000410000000
332100000000
ENDCHAR
STARTCHAR .notdef
ENCODING -1
SWIDTH 150 0
DWIDTH 2 0
BBX 1 1 0 0
BITMAP
00
ENDCHAR
STARTCHAR .null
ENCODING -1
SWIDTH 0 0
DWIDTH 0 0
BBX 1 1 0 0
BITMAP
00
ENDCHAR
STARTCHAR nonmarkingreturn
ENCODING -1
SWIDTH 150 0
DWIDTH 2 0
BBX 1 1 0 0
BITMAP
00
ENDCHAR
ENDFONT
